<svg width="160" height="60" viewBox="0 0 160 60" fill="none" xmlns="http://www.w3.org/2000/svg">
  <rect width="160" height="60" rx="16" fill="#111827"/>
  <text x="55" y="38" font-family="SF Pro Display, Arial, Helvetica, sans-serif" font-size="26" font-weight="600" fill="white">Pay</text>
  <path d="M29 29.3c0-2.4 1.9-3.6 2-3.7-1.1-1.6-2.8-1.8-3.4-1.8-1.4-.2-2.7.9-3.4.9-.7 0-1.8-.9-3-0.9-1.5 0-2.9.9-3.7 2.2-1.6 2.9-.4 7.1 1.1 9.5.8 1.1 1.7 2.5 2.9 2.5 1.2 0 1.5-.7 2.8-.7 1.3 0 1.6.7 2.8.7 1.2 0 2.1-1.1 2.9-2.3 0.9-1.4 1.3-2.9 1.3-2.9-.1 0-2.4-1-2.4-4.3z" fill="white"/>
</svg>

