<svg width="160" height="60" viewBox="0 0 160 60" fill="none" xmlns="http://www.w3.org/2000/svg">
  <rect width="160" height="60" rx="16" fill="white"/>
  <path d="M31 30.1c0-.6-.1-1.3-.2-1.9H18v3.6h7.1a6.4 6.4 0 0 1-2.7 4.1v3.4h4.3c2.5-2.3 4.3-5.8 4.3-9.2z" fill="#4285F4"/>
  <path d="M18 42.2c3.6 0 6.6-1.1 8.8-3.3L22.5 35c-1.2.9-2.6 1.4-4.5 1.4a7.9 7.9 0 0 1-7.4-5.4H6.3v3.3a12.7 12.7 0 0 0 11.7 7.9z" fill="#34A853"/>
  <path d="M10.6 31.7a7.8 7.8 0 0 1 0-3.4v-3.3H6.3a12.8 12.8 0 0 0 0 10.8l4.3-3.3z" fill="#FBBC05"/>
  <path d="M18 22c2 0 3.8.6 5.1 1.9L26.9 20A12.7 12.7 0 0 0 6.3 24.8l4.3 3.3A7.9 7.9 0 0 1 18 22z" fill="#EA4335"/>
  <text x="62" y="38" font-family="Arial, Helvetica, sans-serif" font-size="26" font-weight="600" fill="#111827">Pay</text>
</svg>

